<svg viewBox="0 0 26 25" fill="none" xmlns="http://www.w3.org/2000/svg">
  <path fill-rule="evenodd" clip-rule="evenodd" d="M13.0781 0C19.7719 0 25.1979 5.56287 25.1979 12.4263C25.1979 17.9153 21.7292 22.5717 16.9164 24.2164C16.302 24.3388 16.0838 23.9507 16.0838 23.6199C16.0838 23.2102 16.0984 21.8723 16.0984 20.2094C16.0984 19.0508 15.7105 18.2946 15.2754 17.9092C17.9745 17.6013 20.8105 16.5504 20.8105 11.7777C20.8105 10.4203 20.3403 9.31259 19.5622 8.44239C19.6882 8.12849 20.1039 6.86456 19.4434 5.15325C19.4434 5.15325 18.4278 4.82029 16.1141 6.42737C15.1458 6.15225 14.1083 6.01382 13.0781 6.00898C12.0479 6.01382 11.0117 6.15225 10.0446 6.42737C7.72847 4.82029 6.71041 5.15325 6.71041 5.15325C6.05231 6.86456 6.46802 8.12849 6.59285 8.44239C5.8184 9.31259 5.34452 10.4203 5.34452 11.7777C5.34452 16.5383 8.17448 17.6053 10.8663 17.9192C10.5196 18.2295 10.2057 18.7768 10.0967 19.5804C9.40584 19.8979 7.6509 20.4474 6.56982 18.5483C6.56982 18.5483 5.92868 17.3543 4.71186 17.2671C4.71186 17.2671 3.53018 17.2514 4.62945 18.0222C4.62945 18.0222 5.42329 18.404 5.97474 19.8402C5.97474 19.8402 6.68617 22.058 10.0579 21.3066C10.0639 22.3453 10.0749 23.3242 10.0749 23.6199C10.0749 23.9483 9.85184 24.3327 9.24707 24.2176C4.43068 22.5754 0.958374 17.9165 0.958374 12.4263C0.958374 5.56287 6.3856 0 13.0781 0Z" fill="white"/>
</svg>