<svg viewBox="0 0 22 23" fill="none" xmlns="http://www.w3.org/2000/svg">
<path fill-rule="evenodd" clip-rule="evenodd" d="M14.7013 1.90906H6.4805C3.4537 1.90906 1 4.36276 1 7.38956V15.6103C1 18.6371 3.4537 21.0908 6.4805 21.0908H14.7013C17.728 21.0908 20.1818 18.6371 20.1818 15.6103V7.38956C20.1818 4.36276 17.728 1.90906 14.7013 1.90906Z" stroke="white" stroke-width="2" stroke-linecap="round" stroke-linejoin="round"/>
<path fill-rule="evenodd" clip-rule="evenodd" d="M10.5909 15.6104C8.32075 15.6104 6.48053 13.7702 6.48053 11.5C6.48053 9.22986 8.32075 7.38965 10.5909 7.38965C12.8611 7.38965 14.7013 9.22986 14.7013 11.5C14.7013 12.5901 14.2682 13.6356 13.4974 14.4065C12.7265 15.1773 11.681 15.6104 10.5909 15.6104Z" stroke="white" stroke-width="2" stroke-linecap="round" stroke-linejoin="round"/>
<path d="M16.0714 5.11147C15.5699 5.11147 15.1633 5.51803 15.1633 6.01954C15.1633 6.52106 15.5699 6.92761 16.0714 6.92761C16.5729 6.92761 16.9795 6.52106 16.9795 6.01954C16.9795 5.51803 16.5729 5.11147 16.0714 5.11147Z" fill="white"/>
</svg>