<svg viewBox="0 0 23 23" fill="none" xmlns="http://www.w3.org/2000/svg">
<path d="M7.95 6.5C7.95 7.30082 7.30082 7.95 6.5 7.95C5.69918 7.95 5.05 7.30082 5.05 6.5C5.05 5.69918 5.69918 5.05 6.5 5.05C7.30082 5.05 7.95 5.69918 7.95 6.5Z" fill="white" stroke="black" stroke-width="0.1"/>
<path d="M5.05 9.9C5.05 9.43539 5.47025 9.05 6 9.05H7C7.52975 9.05 7.95 9.43538 7.95 9.9V17.1C7.95 17.5646 7.52975 17.95 7 17.95H6C5.47025 17.95 5.05 17.5646 5.05 17.1V9.9Z" fill="white" stroke="black" stroke-width="0.1"/>
<path d="M12.6167 10.35L12.7139 10.3656L12.7141 10.3657L12.7142 10.3656L12.7142 10.3656L12.7143 10.3651L12.7152 10.3627L12.7189 10.3523C12.7224 10.3431 12.7278 10.3292 12.7353 10.3115C12.7503 10.276 12.7739 10.2248 12.8077 10.1631C12.8754 10.0398 12.9839 9.87497 13.1467 9.71014C13.4713 9.38144 14.0143 9.05 14.8889 9.05C15.77 9.05 16.5355 9.27309 17.0796 9.71385C17.6224 10.1535 17.95 10.8136 17.95 11.7V17.1C17.95 17.57 17.5738 17.95 17.1111 17.95H16.2222C15.7595 17.95 15.3833 17.5704 15.3833 17.1004V12.6C15.3833 12.1365 15.2106 11.8367 14.9421 11.678C14.6768 11.5213 14.3286 11.509 13.9877 11.5953C13.6461 11.6818 13.3048 11.8689 13.0483 12.1214C12.7917 12.3739 12.6167 12.6954 12.6167 13.05V17.1C12.6167 17.57 12.2405 17.95 11.7778 17.95H10.8889C10.4262 17.95 10.05 17.57 10.05 17.1V9.9C10.05 9.42997 10.4262 9.05 10.8889 9.05H11.7778C12.2405 9.05 12.6167 9.42997 12.6167 9.9V10.35Z" fill="white" stroke="black" stroke-width="0.1"/>
<path fill-rule="evenodd" clip-rule="evenodd" d="M19.8333 0C21.5592 0 22.9583 1.39911 22.9583 3.125V19.7917C22.9583 21.5176 21.5592 22.9167 19.8333 22.9167H3.16663C1.44074 22.9167 0.041626 21.5176 0.041626 19.7917V3.125C0.041626 1.39911 1.44074 0 3.16663 0H19.8333ZM19.8333 2.08333C20.4086 2.08333 20.875 2.54971 20.875 3.125V19.7917C20.875 20.367 20.4086 20.8333 19.8333 20.8333H3.16663C2.59133 20.8333 2.12496 20.367 2.12496 19.7917V3.125C2.12496 2.54971 2.59133 2.08333 3.16663 2.08333H19.8333Z" fill="white"/>
</svg>