<svg viewBox="0 0 346 233" fill="none" xmlns="http://www.w3.org/2000/svg">
<rect x="152.13" y="1" width="193.138" height="193.138" rx="96.5689" fill="#282E54" fill-opacity="0.05"/>
<path d="M246.719 157.03C245.067 164.68 243.003 172.156 239.081 181.981C237.739 185.344 234.156 193.064 234.156 193.064C211.131 190.249 193.31 176.775 186.977 171.932C197.967 145.543 192.689 119.712 192.689 119.712C192.689 119.712 190.973 113.441 190.193 109.386C185.572 85.3608 195.351 69.7191 199.773 63.1962C193.876 52.7543 194.199 42.8709 197.003 34.6052C200.129 25.3907 205.894 19.4759 212.756 15.7725C218.078 20.9147 226.877 31.5725 232.266 40.0446C237.48 38.4879 241.777 38.014 244.784 37.8227C251.376 29.8184 257.66 26.1475 260.126 24.6603C262.652 27.87 265.971 33.822 267.113 40.6076C272.944 42.4749 279.48 45.7229 285.007 49.965C306.48 66.4462 310.442 91.2474 307.474 107.839C316.302 107.935 323.535 108.449 335.082 111.626C335.784 117.066 334.521 123.388 333.91 125.658C330.457 138.487 320.974 146.171 315.364 149.093C301.298 156.422 287.207 153.356 279.284 148.672C273.844 151.871 269.231 153.702 263.315 155.254C254.727 157.507 246.719 157.03 246.719 157.03Z" fill="#5081FF"/>
<path d="M263.668 39.7478C263.469 38.1748 262.436 33.7196 259.917 29.1472C257.627 31.7876 256.641 33.5014 256.077 38.2994C259.01 38.6548 261.883 39.2692 263.668 39.7478Z" fill="black" fill-opacity="0.1"/>
<path d="M227.294 42.8562C222.502 34.1022 213.593 23.4357 211.197 20.7449C207.147 31.1575 208.478 42.0894 212.446 50.1116C215.979 55.1718 221.01 54.8091 224.321 52.701C226.749 51.155 228.93 47.2008 227.294 42.8562Z" fill="black" fill-opacity="0.1"/>
<path d="M323.181 108.993C326.74 109.528 332.082 110.705 335.088 111.628C335.254 113.234 335.63 118.581 334.309 124.061C329.355 127.521 323.008 125.386 320.695 120.724C318.395 116.473 319.768 111.555 323.181 108.993Z" fill="black" fill-opacity="0.1"/>
<ellipse cx="267.127" cy="90.9033" rx="20.1746" ry="20.1028" fill="#282E54" fill-opacity="0.05"/>
<path d="M287.459 91.1157C287.459 102.029 278.063 111.005 267.301 111.005C264.131 111.005 262.516 110.502 260.525 109.875C262.276 97.3107 271.086 84.9506 284.246 80.0483C286.596 83.8658 287.459 87.1474 287.459 91.1157Z" fill="black" fill-opacity="0.1"/>
<path d="M308.314 97.38C308.314 105.209 306.772 112.961 303.776 120.194C300.78 127.426 296.389 133.998 290.853 139.534C285.317 145.07 278.745 149.461 271.513 152.457C264.28 155.453 256.528 156.995 248.699 156.995C232.888 156.995 217.725 150.714 206.545 139.534C195.365 128.354 189.084 113.191 189.084 97.38C189.084 81.5692 195.365 66.4059 206.545 55.2259C217.725 44.046 232.888 37.7652 248.699 37.7651C256.528 37.7651 264.28 39.3071 271.513 42.303C278.745 45.2989 285.317 49.6901 290.853 55.2258C296.389 60.7616 300.78 67.3335 303.776 74.5663C306.772 81.7991 308.314 89.5512 308.314 97.38Z" stroke="#2A0760" stroke-width="0.5" stroke-linecap="round" stroke-linejoin="round" stroke-dasharray="3 3"/>
<path d="M345.485 97.5689C345.485 110.25 342.987 122.808 338.134 134.524C333.281 146.24 326.168 156.886 317.2 165.853C308.233 174.821 297.587 181.934 285.871 186.787C274.155 191.64 261.597 194.138 248.916 194.138C223.304 194.138 198.742 183.964 180.631 165.853C162.521 147.743 152.347 123.18 152.347 97.5689C152.347 71.9572 162.521 47.3946 180.631 29.2844C198.742 11.1742 223.304 1.00003 248.916 1C261.597 0.999986 274.155 3.4978 285.871 8.35083C297.587 13.2039 308.233 20.3171 317.2 29.2843C326.168 38.2516 333.281 48.8973 338.134 60.6135C342.987 72.3298 345.485 84.8872 345.485 97.5689Z" stroke="#2A0760" stroke-width="0.5" stroke-linecap="round" stroke-linejoin="round" stroke-dasharray="3 3"/>
<path d="M287.198 90.8968C287.198 93.5335 286.678 96.1443 285.669 98.5803C284.66 101.016 283.181 103.23 281.317 105.094C279.452 106.958 277.239 108.437 274.803 109.446C272.367 110.455 269.756 110.975 267.12 110.975C264.483 110.975 261.872 110.455 259.436 109.446C257 108.437 254.787 106.958 252.923 105.094C251.058 103.23 249.579 101.016 248.57 98.5803C247.561 96.1443 247.042 93.5335 247.042 90.8968C247.042 88.2602 247.561 85.6494 248.57 83.2134C249.579 80.7775 251.058 78.5641 252.923 76.6997C254.787 74.8353 257 73.3564 259.436 72.3474C261.872 71.3384 264.483 70.8191 267.12 70.8191C269.756 70.8191 272.367 71.3384 274.803 72.3474C277.239 73.3564 279.452 74.8353 281.317 76.6997C283.181 78.5641 284.66 80.7775 285.669 83.2134C286.678 85.6494 287.198 88.2602 287.198 90.8968Z" stroke="#2A0760" stroke-width="0.5" stroke-linecap="round" stroke-linejoin="round" stroke-dasharray="3 3"/>
<path d="M335.206 115.503C335.206 120.485 334.234 125.419 332.345 130.021C330.455 134.624 327.686 138.806 324.196 142.329C320.705 145.852 316.561 148.647 312 150.553C307.439 152.46 302.55 153.441 297.613 153.441C287.643 153.441 278.081 149.444 271.031 142.329C263.981 135.215 260.021 125.565 260.021 115.503C260.021 105.441 263.981 95.7919 271.031 88.6772C278.081 81.5624 287.643 77.5654 297.613 77.5654C302.55 77.5654 307.439 78.5467 312 80.4533C316.561 82.3598 320.705 85.1543 324.196 88.6771C327.686 92.2 330.455 96.3822 332.345 100.985C334.234 105.588 335.206 110.521 335.206 115.503Z" stroke="#2A0760" stroke-width="0.5" stroke-linecap="round" stroke-linejoin="round" stroke-dasharray="3 3"/>
<path d="M264.15 45.8356C264.15 50.3647 263.257 54.8495 261.524 59.0339C259.791 63.2183 257.251 67.0203 254.048 70.2229C250.845 73.4255 247.043 75.9659 242.859 77.6991C238.675 79.4324 234.19 80.3244 229.661 80.3244C220.514 80.3244 211.741 76.6908 205.273 70.2229C198.805 63.7549 195.172 54.9826 195.172 45.8356C195.172 36.6885 198.805 27.9162 205.273 21.4482C211.741 14.9803 220.514 11.3467 229.661 11.3467C234.19 11.3467 238.675 12.2387 242.859 13.972C247.043 15.7052 250.845 18.2456 254.048 21.4482C257.251 24.6508 259.791 28.4528 261.524 32.6372C263.257 36.8216 264.15 41.3064 264.15 45.8356Z" stroke="#2A0760" stroke-width="0.5" stroke-linecap="round" stroke-linejoin="round" stroke-dasharray="3 3"/>
<path d="M223.737 4.34842C222.28 5.42781 220.902 6.61559 219.614 7.90352C216.189 11.3281 213.473 15.3938 211.619 19.8683C209.766 24.3428 208.812 29.1385 208.812 33.9817C208.812 38.8248 209.766 43.6205 211.619 48.095C213.473 52.5695 216.189 56.6352 219.614 60.0598C223.039 63.4844 227.104 66.201 231.579 68.0544C236.053 69.9078 240.849 70.8617 245.692 70.8617C255.473 70.8617 264.854 66.9761 271.77 60.0598C278.687 53.1434 282.572 43.7628 282.572 33.9817C282.572 24.2005 278.687 14.8199 271.77 7.90355C269.577 5.71076 267.137 3.82262 264.515 2.26636" stroke="#2A0760" stroke-width="0.5" stroke-linecap="round" stroke-linejoin="round" stroke-dasharray="3 3"/>
<path d="M338.255 116.379C338.255 118.849 337.274 121.217 335.528 122.964C333.781 124.71 331.413 125.691 328.943 125.691C326.474 125.691 324.105 124.71 322.359 122.964C320.612 121.217 319.631 118.849 319.631 116.379C319.631 113.909 320.612 111.541 322.359 109.795C324.105 108.048 326.474 107.067 328.943 107.067C331.413 107.067 333.781 108.048 335.528 109.795C337.274 111.541 338.255 113.909 338.255 116.379Z" stroke="#2A0760" stroke-width="0.5" stroke-linecap="round" stroke-linejoin="round" stroke-dasharray="3 3"/>
<path d="M227.795 45.9012C227.795 46.9777 227.583 48.0436 227.171 49.0382C226.759 50.0327 226.155 50.9364 225.394 51.6976C224.633 52.4588 223.729 53.0626 222.735 53.4746C221.74 53.8865 220.674 54.0985 219.598 54.0985C217.424 54.0985 215.338 53.2349 213.801 51.6976C212.264 50.1603 211.4 48.0753 211.4 45.9012C211.4 43.7271 212.264 41.6421 213.801 40.1048C215.338 38.5675 217.424 37.7039 219.598 37.7039C220.674 37.7039 221.74 37.9159 222.735 38.3278C223.729 38.7398 224.633 39.3436 225.394 40.1048C226.155 40.866 226.759 41.7696 227.171 42.7642C227.583 43.7587 227.795 44.8247 227.795 45.9012Z" stroke="#2A0760" stroke-width="0.5" stroke-linecap="round" stroke-linejoin="round" stroke-dasharray="3 3"/>
<path d="M234.025 193.025C244.511 171.752 250.114 148.165 250.114 124C250.114 82.5974 233.667 42.8902 204.391 13.614C203.992 13.215 203.591 12.8185 203.188 12.4243" stroke="#2A0760" stroke-width="0.5" stroke-linecap="round" stroke-linejoin="round" stroke-dasharray="3 3"/>
<path opacity="0.2" fill-rule="evenodd" clip-rule="evenodd" d="M97.5079 232.222C150.801 232.222 194.003 189.02 194.003 135.727C194.003 82.434 150.801 39.2317 97.5079 39.2317C44.2151 39.2317 1.0128 82.434 1.0128 135.727C1.0128 189.02 44.2151 232.222 97.5079 232.222ZM97.508 195.078C130.287 195.078 156.859 168.505 156.859 135.727C156.859 102.948 130.287 76.376 97.508 76.376C64.7295 76.376 38.1572 102.948 38.1572 135.727C38.1572 168.505 64.7295 195.078 97.508 195.078Z" fill="black" fill-opacity="0.2"/>
<path fill-rule="evenodd" clip-rule="evenodd" d="M1.04451 139.16C3.31851 116.964 24.8581 102.72 45.3772 107.173C40.7784 115.604 38.3379 125.338 38.3379 135.618C38.3379 168.397 64.9101 194.969 97.6887 194.969C130.467 194.969 157.039 168.397 157.039 135.618C157.039 129.966 156.249 124.498 154.773 119.319C162.563 144.348 171.835 158.915 187.048 171.804C178.823 192.716 153.008 231.357 97.8235 232.32C44.4929 233.251 1.93203 188.475 1.04451 139.16Z" fill="#282E54" fill-opacity="0.05"/>
<path d="M181.075 87.4792C187.411 98.4534 191.523 110.568 193.177 123.132C194.831 135.695 193.994 148.461 190.715 160.701C187.435 172.942 181.777 184.416 174.062 194.469C166.348 204.522 156.729 212.958 145.755 219.294C123.592 232.09 97.253 235.557 72.533 228.934C47.813 222.31 26.7367 206.138 13.9407 183.974C7.60471 173 3.49234 160.885 1.83833 148.322C0.18432 135.758 1.02107 122.992 4.3008 110.752C7.58054 98.5118 13.239 87.0375 20.9532 76.9842C28.6674 66.9309 38.2862 58.4955 49.2604 52.1596C71.4237 39.3635 97.7625 35.896 122.483 42.5197C147.203 49.1434 168.279 65.3158 181.075 87.4792Z" stroke="#282E54" stroke-width="0.5" stroke-linecap="round" stroke-linejoin="round" stroke-dasharray="3 3"/>
<path d="M149.136 105.919C157.041 119.612 159.183 135.884 155.091 151.156C150.999 166.428 141.008 179.449 127.315 187.355C120.535 191.269 113.051 193.81 105.289 194.832C97.5271 195.854 89.64 195.337 82.0781 193.31C74.5161 191.284 67.4272 187.788 61.2163 183.022C55.0053 178.257 49.7939 172.314 45.8795 165.534C41.9651 158.754 39.4245 151.27 38.4027 143.508C37.3808 135.746 37.8978 127.859 39.924 120.297C41.9503 112.735 45.4461 105.646 50.2119 99.4356C54.9778 93.2246 60.9203 88.0132 67.7002 84.0988C81.3928 76.1934 97.665 74.0511 112.937 78.1433C128.209 82.2355 141.23 92.2268 149.136 105.919Z" stroke="#282E54" stroke-width="0.5" stroke-linecap="round" stroke-linejoin="round" stroke-dasharray="3 3"/>
<path d="M74.76 143.416C74.76 153.197 70.8744 162.578 63.9581 169.494C57.0417 176.41 47.6612 180.296 37.88 180.296C28.0988 180.296 18.7183 176.41 11.8019 169.494C4.88558 162.578 1 153.197 1 143.416C0.999999 133.635 4.88558 124.254 11.8019 117.338C18.7183 110.421 28.0988 106.536 37.88 106.536C47.6612 106.536 57.0417 110.421 63.9581 117.338C70.8744 124.254 74.76 133.635 74.76 143.416Z" stroke="#282E54" stroke-width="0.5" stroke-linecap="round" stroke-linejoin="round" stroke-dasharray="3 3"/>
</svg>
