<svg viewBox="0 0 261 261" fill="none" xmlns="http://www.w3.org/2000/svg">
<rect x="1.37732" y="1.26221" width="258.623" height="258.623" rx="129.312" fill="#F1F2F6"/>
<mask id="mask0_60_64" style="mask-type:alpha" maskUnits="userSpaceOnUse" x="1" y="1" width="260" height="259">
<circle cx="130.689" cy="130.574" r="129.312" fill="#D9D9D9"/>
</mask>
<g mask="url(#mask0_60_64)">
<rect x="1.88602" y="2.13877" width="256.976" height="256.976" rx="128.488" fill="#F1F2F6" stroke="white" stroke-width="7.2"/>
<g filter="url(#filter0_dii_60_64)">
<path d="M127.551 206.617C125.454 216.327 122.834 225.815 117.856 238.286C116.153 242.553 111.605 252.353 111.605 252.353C71.5893 246.143 46.9893 222.533 37.4803 211.304C43.6378 204.381 49.9304 195.533 54.1299 181.633C56.3063 174.428 57.1297 167.246 57.2091 160.838C57.1591 156.254 56.7962 151.292 55.8062 146.145C49.9406 115.65 62.3529 95.7972 67.9651 87.518C60.4799 74.2646 60.8899 61.7201 64.4493 51.2288C68.4172 39.5334 75.7342 32.0261 84.4445 27.3254C91.199 33.8523 102.367 47.3796 109.208 58.1328C115.824 56.157 121.278 55.5554 125.095 55.3126C133.462 45.1532 141.438 40.494 144.568 38.6063C147.774 42.6802 151.988 50.2348 153.436 58.8474C160.838 61.2174 169.133 65.34 176.148 70.7243C203.403 91.643 208.431 123.122 204.665 144.181C215.87 144.303 225.05 144.956 239.707 148.988C240.597 155.892 238.994 163.916 238.219 166.797C233.836 183.081 221.799 192.833 214.679 196.543C196.825 205.844 178.941 201.953 168.884 196.008C161.98 200.069 156.125 202.392 148.616 204.362C137.716 207.221 127.551 206.617 127.551 206.617Z" fill="#5081FF"/>
<path d="M208.149 141.239C210.932 119.489 204.868 88.9857 177.975 68.3444C171.201 63.1454 163.31 59.0906 156.054 56.5602C154.267 48.1186 150.154 40.8541 146.925 36.751L145.287 34.6691L143.018 36.0375C142.934 36.0881 142.847 36.1407 142.756 36.1954C139.477 38.1693 131.775 42.8059 123.611 52.4108C120.203 52.6805 115.754 53.2523 110.52 54.6452C103.515 44.0563 93.072 31.4905 86.5292 25.1681L84.951 23.6431L83.0198 24.6854C73.6974 29.7163 65.8389 37.7952 61.6083 50.265C57.9651 61.0034 57.4239 73.8471 64.4644 87.3567C58.3294 96.6837 47.1077 116.805 52.8602 146.711C53.8061 151.629 54.1589 156.394 54.2089 160.836C54.1297 167.014 53.3334 173.896 51.2581 180.765C47.2145 194.15 41.1849 202.625 35.2387 209.31L33.5082 211.256L35.1909 213.243C44.9593 224.778 70.1527 248.956 111.145 255.318L113.376 255.664L114.327 253.616L113.885 253.411C114.327 253.616 114.327 253.616 114.327 253.616L114.327 253.615L114.327 253.614L114.33 253.608L114.34 253.587L114.379 253.503L114.527 253.182C114.656 252.904 114.841 252.503 115.068 252.008C115.523 251.019 116.147 249.655 116.825 248.156C118.172 245.181 119.762 241.604 120.643 239.398C125.277 227.789 127.903 218.703 129.949 209.67C131.059 209.671 132.489 209.645 134.154 209.557C138.19 209.344 143.671 208.761 149.377 207.264C156.582 205.374 162.372 203.146 168.905 199.459C179.89 205.31 198.002 208.614 216.065 199.203C223.697 195.227 236.454 184.894 241.115 167.577C241.931 164.547 243.646 156.08 242.682 148.604L242.427 146.624L240.502 146.095C227.071 142.4 218.084 141.479 208.149 141.239Z" stroke="white" stroke-width="6"/>
</g>
<path d="M149.538 57.4021C149.285 55.4055 147.974 49.7508 144.776 43.9473C141.87 47.2986 140.619 49.4738 139.903 55.5637C143.625 56.0147 147.272 56.7946 149.538 57.4021Z" fill="#BDBFFF"/>
<path d="M103.369 61.3473C97.287 50.2362 85.9793 36.6978 82.9382 33.2825C77.7974 46.4987 79.4875 60.374 84.5239 70.5561C89.0077 76.9789 95.3931 76.5185 99.5951 73.8428C102.677 71.8805 105.445 66.8616 103.369 61.3473Z" fill="#BDBFFF"/>
<path d="M225.074 145.292C229.591 145.971 236.371 147.465 240.186 148.636C240.398 150.674 240.875 157.461 239.198 164.416C232.91 168.808 224.854 166.099 221.918 160.181C218.999 154.786 220.742 148.544 225.074 145.292Z" fill="#282E54"/>
<ellipse cx="153.927" cy="122.331" rx="25.6065" ry="25.5154" fill="white"/>
<path d="M179.734 122.6C179.734 136.452 167.808 147.845 154.149 147.845C150.125 147.845 148.075 147.207 145.548 146.41C147.77 130.463 158.953 114.775 175.656 108.553C178.638 113.399 179.734 117.564 179.734 122.6Z" fill="#242A4D"/>
</g>
<defs>
<filter id="filter0_dii_60_64" x="23.5361" y="16.9607" width="226.431" height="247.014" filterUnits="userSpaceOnUse" color-interpolation-filters="sRGB">
<feFlood flood-opacity="0" result="BackgroundImageFix"/>
<feColorMatrix in="SourceAlpha" type="matrix" values="0 0 0 0 0 0 0 0 0 0 0 0 0 0 0 0 0 0 127 0" result="hardAlpha"/>
<feOffset/>
<feGaussianBlur stdDeviation="1.5"/>
<feComposite in2="hardAlpha" operator="out"/>
<feColorMatrix type="matrix" values="0 0 0 0 0 0 0 0 0 0 0 0 0 0 0 0 0 0 0.2 0"/>
<feBlend mode="normal" in2="BackgroundImageFix" result="effect1_dropShadow_60_64"/>
<feBlend mode="normal" in="SourceGraphic" in2="effect1_dropShadow_60_64" result="shape"/>
<feColorMatrix in="SourceAlpha" type="matrix" values="0 0 0 0 0 0 0 0 0 0 0 0 0 0 0 0 0 0 127 0" result="hardAlpha"/>
<feOffset dx="4" dy="5"/>
<feGaussianBlur stdDeviation="2.5"/>
<feComposite in2="hardAlpha" operator="arithmetic" k2="-1" k3="1"/>
<feColorMatrix type="matrix" values="0 0 0 0 1 0 0 0 0 1 0 0 0 0 1 0 0 0 0.1 0"/>
<feBlend mode="normal" in2="shape" result="effect2_innerShadow_60_64"/>
<feColorMatrix in="SourceAlpha" type="matrix" values="0 0 0 0 0 0 0 0 0 0 0 0 0 0 0 0 0 0 127 0" result="hardAlpha"/>
<feOffset dx="-6" dy="-3"/>
<feGaussianBlur stdDeviation="5"/>
<feComposite in2="hardAlpha" operator="arithmetic" k2="-1" k3="1"/>
<feColorMatrix type="matrix" values="0 0 0 0 0 0 0 0 0 0 0 0 0 0 0 0 0 0 0.05 0"/>
<feBlend mode="normal" in2="effect2_innerShadow_60_64" result="effect3_innerShadow_60_64"/>
</filter>
</defs>
</svg>