<svg viewBox="0 0 48 55" fill="none" xmlns="http://www.w3.org/2000/svg">
  <path
      d="M23.9471 28.2258L22.7266 29.5803C23.409 30.2745 24.4852 30.2745 25.1676 29.5803L23.9471 28.2258ZM22.7388 35.8998C21.7555 35.133 20.6719 34.1755 19.8517 33.1678C18.9851 32.1033 18.6528 31.2758 18.6528 30.7393H15.1233C15.1233 32.664 16.1614 34.3673 17.1819 35.6208C18.2485 36.9313 19.5684 38.0793 20.651 38.9233L22.7388 35.8998ZM18.6528 30.7393C18.6528 29.2993 19.2707 28.6725 19.8103 28.4715C20.3992 28.2523 21.4901 28.3223 22.7266 29.5803L25.1676 26.8715C23.2278 24.8983 20.7891 24.1333 18.6426 24.9328C16.4467 25.7505 15.1233 27.9963 15.1233 30.7393H18.6528ZM27.2432 38.9233C28.3258 38.0793 29.6457 36.9313 30.7123 35.6208C31.7328 34.3673 32.7709 32.664 32.7709 30.7393H29.2414C29.2414 31.2758 28.9092 32.1033 28.0425 33.1678C27.2223 34.1758 26.1387 35.133 25.1554 35.8998L27.2432 38.9233ZM32.7709 30.7393C32.7709 27.9963 31.4474 25.7505 29.2515 24.9328C27.1051 24.1333 24.6664 24.8983 22.7266 26.8715L25.1676 29.5803C26.4041 28.3223 27.495 28.2523 28.084 28.4715C28.6235 28.6725 29.2414 29.2993 29.2414 30.7393H32.7709ZM20.651 38.9233C21.5183 39.5993 22.492 40.4413 23.9471 40.4415V36.6915C23.8897 36.6915 23.8542 36.6913 23.7262 36.6195C23.524 36.506 23.2713 36.3148 22.7388 35.8998L20.651 38.9233ZM25.1554 35.8998C24.6229 36.3148 24.3702 36.506 24.1681 36.6195C24.0401 36.6913 24.0045 36.6915 23.9471 36.6915V40.4415C25.4022 40.4415 26.3759 39.5993 27.2432 38.9233L25.1554 35.8998Z"
      fill="white"/>
  <path
      d="M16.8881 12.7476V10.2476C16.8881 6.10543 20.0484 2.74756 23.9471 2.74756C27.8458 2.74756 31.0062 6.10543 31.0062 10.2476V12.7476"
      stroke="white" stroke-width="4" stroke-linecap="round"/>
  <path
      d="M43.2971 29.0618C41.9199 21.2589 41.2314 17.3574 38.6175 15.0525C36.0035 12.7476 32.2676 12.7476 24.7954 12.7476H23.0984C15.6262 12.7476 11.8901 12.7476 9.27617 15.0525C6.6622 17.3574 5.97368 21.2589 4.59665 29.0618C2.66028 40.0341 1.69211 45.5203 4.51486 49.1338C7.33758 52.7476 12.5912 52.7476 23.0984 52.7476H24.7954C35.3025 52.7476 40.5561 52.7476 43.3788 49.1338C45.0165 47.0373 45.3781 44.3106 45.0151 40.2476"
      stroke="white" stroke-width="4" stroke-linecap="round"/>
</svg>