<svg viewBox="0 0 46 57" fill="none" xmlns="http://www.w3.org/2000/svg">
<path d="M11.9449 8.26965C14.1009 8.67565 15.9909 10.8806 16.7469 13.8696C16.8589 10.7896 18.2449 8.26965 20.2469 7.39465C18.0909 6.98165 16.2079 4.78365 15.4519 1.79465C15.3329 4.88165 13.9469 7.39465 11.9519 8.27665L11.9449 8.26965Z" fill="white"/>
<path d="M44.6139 39.0907C44.5509 39.2727 44.4739 39.4617 44.3899 39.6437L44.1379 40.1757L42.9689 42.6817C40.2078 48.6488 35.2579 53.3255 29.1439 55.7437C27.3398 56.4661 25.3813 56.7167 23.4534 56.4717C21.5255 56.2268 19.6919 55.4944 18.1259 54.3437L11.7839 49.7307C8.50581 47.3445 6.1303 43.9206 5.04286 40.0146C3.66817 35.0592 3.4289 29.8574 4.34286 24.7967C4.42171 24.2307 4.46146 23.66 4.46185 23.0887C4.5014 20.1177 4.0083 17.1637 3.00588 14.3667L0.534858 7.36668C0.399002 7.13008 0.335231 6.85892 0.351398 6.58657C0.367565 6.31422 0.462968 6.05254 0.625861 5.83368C0.770325 5.65088 0.95601 5.50487 1.16769 5.40754C1.37938 5.31021 1.61105 5.26435 1.84385 5.27368C2.8231 5.28884 3.78534 5.53204 4.65415 5.98407C5.52296 6.43609 6.27443 7.08446 6.84887 7.87767C8.69579 10.4292 9.98379 13.3416 10.6288 16.4247L10.7689 17.1247C10.8714 17.6506 11.0882 18.1477 11.4039 18.5807C11.7196 19.0137 12.1265 19.3721 12.5959 19.6306C13.2882 19.9986 14.0821 20.1294 14.8559 20.003C15.6297 19.8766 16.3407 19.4999 16.8799 18.9307L33.1618 1.59868C33.4505 1.29426 33.8029 1.05735 34.1937 0.90488C34.5846 0.752412 35.0043 0.68815 35.4229 0.716678L36.4169 0.786661C36.9167 0.817444 37.3991 0.981728 37.8139 1.26236C38.2286 1.54299 38.5605 1.92969 38.775 2.38221C38.9894 2.83473 39.0786 3.33648 39.0332 3.83519C38.9878 4.3339 38.8095 4.81131 38.5169 5.21767L29.8649 17.6637C29.3032 17.6797 28.7448 17.7547 28.1989 17.8877C27.0888 18.156 26.0392 18.631 25.1049 19.2877L19.9459 22.8717C18.9335 23.5729 18.1845 24.5924 17.8179 25.7681C17.4514 26.9439 17.4883 28.2083 17.9229 29.3607C18.3919 30.595 19.2819 31.6239 20.4359 32.2657C19.983 32.9209 19.6654 33.6598 19.5015 34.4393C19.3375 35.2187 19.3307 36.023 19.4812 36.8051C19.6318 37.5872 19.9367 38.3315 20.3783 38.9943C20.8199 39.6572 21.3891 40.2254 22.0529 40.6657C22.7752 41.129 23.6167 41.3722 24.4749 41.3657C24.8 41.3634 25.1239 41.3258 25.4409 41.2537C25.4098 41.9077 25.5246 42.5604 25.7769 43.1646C26.107 43.9663 26.6678 44.6517 27.3882 45.134C28.1085 45.6164 28.956 45.8738 29.8229 45.8737C30.16 45.8717 30.4957 45.8317 30.8239 45.7547C32.4283 45.3844 33.9721 44.7881 35.4089 43.9837L39.6089 41.6037C39.7776 41.5082 39.9143 41.3647 40.0015 41.1915C40.0888 41.0183 40.1226 40.8231 40.0989 40.6307C40.0815 40.4487 40.0109 40.2758 39.8959 40.1337C39.742 39.9506 39.5284 39.8277 39.2927 39.7867C39.0571 39.7457 38.8145 39.7893 38.6079 39.9097L34.4079 42.2687C33.1376 42.9883 31.7702 43.5211 30.3479 43.8507C29.8518 43.9668 29.3318 43.9244 28.8611 43.7296C28.3904 43.5348 27.9925 43.1973 27.7236 42.7645C27.4547 42.3318 27.3283 41.8257 27.362 41.3173C27.4667 39.7417 29.4637 38.2779 30.4739 37.2146L36.8089 30.4597C37.1673 30.0719 37.621 29.7847 38.1249 29.6267C38.5754 29.4761 39.0554 29.4353 39.5249 29.5077C40.3096 29.614 41.0659 29.8732 41.7509 30.2707C42.6544 30.7975 43.4104 31.5439 43.9489 32.4407C44.5551 33.4268 44.9299 34.5375 45.0451 35.6893C45.1602 36.8411 45.0128 38.0041 44.6139 39.0907Z" fill="white"/>
<path d="M36.1299 22.9976C35.3131 22.8751 34.4826 22.8751 33.6659 22.9976C32.4082 23.1931 31.2114 23.6718 30.1659 24.3976L29.7249 24.7196L21.9269 30.7607C21.4387 30.5858 20.994 30.3076 20.6232 29.9452C20.2523 29.5828 19.964 29.1446 19.7779 28.6607C19.4957 27.9149 19.4713 27.0963 19.7086 26.3351C19.9458 25.5739 20.431 24.914 21.0869 24.4606L26.2529 20.8767C26.984 20.363 27.8058 19.9925 28.6749 19.7847C29.5929 19.5632 30.5478 19.5417 31.4749 19.7216C32.434 19.9193 33.3421 20.3121 34.1429 20.8757C34.9438 21.4393 35.6201 22.1616 36.1299 22.9976Z" fill="white"/>
<path d="M40.6029 27.7297C40.3587 27.6658 40.1109 27.6168 39.8609 27.5827C38.9086 27.4484 37.9377 27.5868 37.0609 27.9817C36.4551 28.26 35.9086 28.652 35.4509 29.1367L26.6589 38.5167L26.0499 38.9507C25.6321 39.2533 25.133 39.4232 24.6173 39.4382C24.1017 39.4531 23.5935 39.3125 23.1589 39.0347C22.6277 38.6797 22.1884 38.2035 21.8774 37.6454C21.5663 37.0873 21.3924 36.4633 21.3698 35.8248C21.3473 35.1863 21.4767 34.5516 21.7476 33.9729C22.0185 33.3943 22.423 32.8883 22.9279 32.4967L26.9389 29.3957L30.9919 26.2527C31.1016 26.1625 31.2161 26.0784 31.3349 26.0007C32.4014 25.2646 33.665 24.8669 34.9609 24.8597C35.3477 24.8589 35.734 24.8893 36.1159 24.9507L36.5079 25.0277C38.1511 25.4118 39.6033 26.37 40.6029 27.7297Z" fill="white"/>
</svg>